<svg xmlns="http://www.w3.org/2000/svg" enable-background="new 0 0 512 512" viewBox="0 0 512 512" id="7165991">
  <path fill="#ffffff" d="M276.01 92.36c0-33.89 28.78-61.36 64.29-61.36 39.702 0 70.021 34.069 63.37 71.61 48.757 0 70.857 53.239 40.81 85.23 32.75 9.69 56.53 38.83 56.53 73.27 0 29.02-16.88 54.26-41.77 67.3 12.39 9.36 20.34 23.83 20.34 40.09 0 37.008-39.955 61.658-75.18 46.79 2.703 35.38-26.724 65.71-64.1 65.71-35.51 0-64.29-27.47-64.29-61.36C276.01 304.745 276.01 207.166 276.01 92.36zM236.01 419.64c0 33.89-28.78 61.36-64.29 61.36-37.443 0-66.798-30.388-64.1-65.71-35.194 14.855-75.18-9.755-75.18-46.79 0-16.26 7.95-30.73 20.34-40.09-24.89-13.04-41.77-38.28-41.77-67.3 0-34.44 23.78-63.58 56.53-73.27-30.125-32.074-7.781-85.23 40.81-85.23C101.693 65.039 132.061 31 171.72 31c35.51 0 64.29 27.47 64.29 61.36C236.01 207.255 236.01 304.834 236.01 419.64z" class="colorf4d7b2 svgShape"></path>
  <circle cx="366.01" cy="346" r="25" fill="#ffb729" class="colorfcf6a1 svgShape"></circle>
  <circle cx="366.01" cy="256" r="25" fill="#ffb729" class="colorfcf6a1 svgShape"></circle>
  <circle cx="366.01" cy="166" r="25" fill="#ffb729" class="colorfcf6a1 svgShape"></circle>
  <circle cx="146.01" cy="166" r="25" fill="#ffb729" class="colorfcf6a1 svgShape"></circle>
  <circle cx="146.01" cy="256" r="25" fill="#ffb729" class="colorfcf6a1 svgShape"></circle>
  <circle cx="146.01" cy="346" r="25" fill="#ffb729" class="colorfcf6a1 svgShape"></circle>
  <path d="M441.366 222.68c-4.595-3.063-10.804-1.823-13.867 2.773-3.063 4.595-1.822 10.804 2.773 13.867 11.549 7.7 14.211 23.461 5.913 34.524L427.819 285c-3.313 4.418-2.418 10.687 2 14 4.405 3.305 10.677 2.432 14-2l8.366-11.155C467.453 265.488 462.374 236.684 441.366 222.68zM312.066 88.889c-2.47 4.939-.468 10.946 4.473 13.416 4.938 2.468 10.946.469 13.416-4.473 4.559-9.118 17.543-9.136 22.111 0 1.752 3.505 5.283 5.531 8.952 5.53 7.345 0 12.286-7.774 8.937-14.474C358.035 65.047 323.982 65.054 312.066 88.889zM171.724 21c-41.543 0-74.868 32.819-74.278 72.345-43.579 6.647-66.763 53.094-45.711 89.851-60.96 28.713-68.101 108.111-15.168 146.862-9.094 10.767-14.127 24.223-14.127 38.442 0 38.26 36.355 67.286 75.576 60.046C102.593 463.707 133.903 491 171.724 491c40.961 0 74.286-32.014 74.286-71.363V92.363C246.01 53.014 212.686 21 171.724 21zM226.01 156h-46.463c-4.314-14.44-17.712-25-33.537-25-19.299 0-35 15.701-35 35s15.701 35 35 35c15.824 0 29.223-10.56 33.537-25h46.463v70h-46.463c-4.314-14.44-17.712-25-33.537-25-19.299 0-35 15.701-35 35s15.701 35 35 35c15.824 0 29.223-10.56 33.537-25h46.463v70h-46.463c-4.314-14.44-17.712-25-33.537-25-19.299 0-35 15.701-35 35s15.701 35 35 35c15.824 0 29.223-10.56 33.537-25h46.463v63.637c0 28.322-24.353 51.363-54.286 51.363-30.981 0-56.344-24.809-54.134-54.976.547-7.448-6.984-12.844-13.857-9.947-28.669 12.084-61.294-7.806-61.294-37.577 0-12.543 5.968-24.25 16.374-32.118 5.848-4.422 5.095-13.439-1.393-16.836-22.458-11.759-36.41-34.148-36.41-58.433 0-29.353 19.839-54.945 49.366-63.685 7.146-2.116 9.532-11.022 4.453-16.434-7.069-7.529-10.962-17.213-10.962-27.268 0-40.144 44.221-41.074 44.321-41.115 6.261.12 11.099-5.547 10.009-11.733C112.625 69.233 138.524 41 171.724 41c29.933 0 54.286 23.041 54.286 51.363V156zM161.01 166c0 8.271-6.729 15-15 15s-15-6.729-15-15 6.729-15 15-15S161.01 157.729 161.01 166zM161.01 256c0 8.271-6.729 15-15 15s-15-6.729-15-15 6.729-15 15-15S161.01 247.729 161.01 256zM161.01 346c0 8.271-6.729 15-15 15s-15-6.729-15-15 6.729-15 15-15S161.01 337.729 161.01 346z" fill="#000000" class="color000000 svgShape"></path>
  <path d="M81.748 239.32c4.595-3.063 5.837-9.272 2.773-13.867-3.063-4.595-9.271-5.837-13.867-2.773-21.172 14.114-25.969 42.966-10.82 63.165L68.201 297c3.293 4.391 9.553 5.335 14 2 4.418-3.313 5.313-9.582 2-14l-8.367-11.155C67.494 262.722 70.262 246.978 81.748 239.32zM142.066 88.888c-2.47 4.94-.468 10.947 4.472 13.417 4.938 2.468 10.945.468 13.417-4.472 4.568-9.136 17.552-9.119 22.111 0 2.475 4.948 8.487 6.937 13.417 4.472 4.94-2.47 6.942-8.477 4.472-13.417C188.032 65.047 153.984 65.055 142.066 88.888zM365.482 412.056c-4.94-2.471-10.946-.469-13.416 4.473-4.559 9.118-17.543 9.136-22.111 0-2.47-4.94-8.479-6.943-13.416-4.473-4.94 2.47-6.942 8.477-4.473 13.416 11.92 23.842 45.972 23.835 57.889 0C372.424 420.532 370.422 414.525 365.482 412.056zM199.954 425.473c2.47-4.94.468-10.947-4.472-13.417-4.94-2.471-10.947-.468-13.417 4.472-4.56 9.119-17.544 9.136-22.111 0-2.47-4.938-8.477-6.94-13.417-4.472-4.94 2.47-6.942 8.477-4.472 13.417C153.988 449.313 188.036 449.305 199.954 425.473z" fill="#000000" class="color000000 svgShape"></path>
  <path d="M460.285,183.195c21.054-36.761-2.138-83.204-45.712-89.851C415.162,53.887,381.917,21,340.296,21
				c-40.962,0-74.286,32.014-74.286,71.363v327.273c0,39.35,33.324,71.363,74.286,71.363c37.821,0,69.131-27.293,73.709-62.454
				c39.158,7.229,75.576-21.716,75.576-60.046c0-14.22-5.033-27.676-14.127-38.442C528.689,291.084,520.816,211.707,460.285,183.195
				z M454.6,319.546c-6.495,3.401-7.234,12.419-1.393,16.836c10.406,7.868,16.374,19.574,16.374,32.118
				c0,29.761-32.612,49.667-61.294,37.577c-6.882-2.902-14.404,2.513-13.856,9.947C396.634,446.158,371.307,471,340.296,471
				c-29.934,0-54.286-23.041-54.286-51.363V356h46.463c4.314,14.44,17.712,25,33.537,25c19.299,0,35-15.701,35-35s-15.701-35-35-35
				c-15.824,0-29.223,10.56-33.537,25H286.01v-70h46.463c4.314,14.44,17.712,25,33.537,25c19.299,0,35-15.701,35-35
				s-15.701-35-35-35c-15.824,0-29.223,10.56-33.537,25H286.01v-70h46.463c4.314,14.44,17.712,25,33.537,25
				c19.299,0,35-15.701,35-35s-15.701-35-35-35c-15.824,0-29.223,10.56-33.537,25H286.01V92.363
				C286.01,64.041,310.363,41,340.296,41c33.158,0,59.109,28.195,53.527,59.877c-2.021,11.453,10.658,11.666,10.758,11.714
				c24.025,0,43.571,18.454,43.571,41.137c0,10.055-3.893,19.738-10.962,27.268c-5.093,5.426-2.671,14.326,4.453,16.434
				c29.527,8.739,49.366,34.332,49.366,63.685C491.01,285.397,477.059,307.787,454.6,319.546z M351.01,346c0-8.271,6.729-15,15-15
				s15,6.729,15,15s-6.729,15-15,15S351.01,354.271,351.01,346z M351.01,256c0-8.271,6.729-15,15-15s15,6.729,15,15s-6.729,15-15,15
				S351.01,264.271,351.01,256z M351.01,166c0-8.271,6.729-15,15-15s15,6.729,15,15s-6.729,15-15,15S351.01,174.271,351.01,166z" fill="#000000" class="color000000 svgShape"></path>
</svg>
