<svg xmlns="http://www.w3.org/2000/svg" xml:space="preserve" viewBox="0 0 512 512" enable-background="new 0 0 512 512" id="11474911">
  <g id="_x33_6_x2C__Growth_x2C__Progress_x2C__Expansion_x2C__Development_x2C__Success_x2C__Increase" fill="#000000" class="color000000 svgShape">
    <g fill="#000000" class="color000000 svgShape">
      <polygon points="343.5 141 343.5 351 188.5 364.121 33.5 351 33.5 141" fill="#ffffff" class="colore8e6f1 svgShape"></polygon>
      <polygon points="343.5 351 343.5 376 188.5 386 33.5 376 33.5 351" fill="#e4be74" class="color747ae4 svgShape"></polygon>
      <polygon points="428.5 141 483.5 201 453.5 201 453.5 346 428.5 355 403.5 346 403.5 201 373.5 201" fill="#d7b87a" class="color7ad7b4 svgShape"></polygon>
      <polygon points="473.5 346 473.5 376 463.5 376 399.333 386 329.9 376 329.9 346" fill="#ffb729" class="colore7ad4f svgShape"></polygon>
      <polygon points="463.5 376 463.5 406 394.2 419.333 329.9 406 329.9 376" fill="#e2b04c" class="colore2914c svgShape"></polygon>
      <polygon points="488.5 406 488.5 436 458.5 436 390 446 329.9 436 329.9 406 463.5 406" fill="#ffb729" class="colore7ad4f svgShape"></polygon>
      <polygon points="503.5 466 503.5 496 358.5 496 358.5 466 407 454 458.5 466" fill="#ffb729" class="colore7ad4f svgShape"></polygon>
      <g fill="#000000" class="color000000 svgShape">
        <rect width="128.6" height="30" x="329.9" y="436" fill="#e2b04c" class="colore2914c svgShape"></rect>
      </g>
      <polygon points="188.5 246 200 311 188.5 376 143.5 376 143.5 246" fill="#f9d99a" class="color9ae9f9 svgShape"></polygon>
      <rect width="45" height="130" x="188.5" y="246" fill="#f9d07e" class="color7edbf9 svgShape"></rect>
      <rect width="320" height="30" x="23.5" y="376" fill="#dfba70" class="colordf9570 svgShape"></rect>
      <g fill="#000000" class="color000000 svgShape">
        <rect width="335" height="20" x="8.5" y="396" fill="#d6ab57" class="colord67f57 svgShape"></rect>
      </g>
      <g fill="#000000" class="color000000 svgShape">
        <path d="M358.5 396c0-27.614-11.191-52.615-29.288-70.712L293.856 346 258.5 396l55 10L358.5 396zM258.5 296c-27.607 0-52.612 11.188-70.713 29.288L211 365.644 258.5 396l8.5-54.333L258.5 296zM258.5 496c27.614 0 52.615-11.192 70.711-29.289L298.333 421 258.5 396l-9.833 47L258.5 496zM158.5 396c0 27.614 11.191 52.615 29.288 70.712l40.879-24.046L258.5 396l-55-10L158.5 396z" fill="#f2d498" class="colorf2de98 svgShape"></path>
        <path d="M329.212 325.288C311.118 307.192 286.119 296 258.5 296v100L329.212 325.288zM187.787 325.288C169.695 343.378 158.5 368.373 158.5 396h100L187.787 325.288zM258.5 396l70.711 70.711C347.307 448.615 358.5 423.615 358.5 396H258.5zM187.788 466.712C205.882 484.808 230.881 496 258.5 496V396L187.788 466.712z" fill="#edc16b" class="coloredc96b svgShape"></path>
      </g>
      <g fill="#000000" class="color000000 svgShape">
        <path d="M333.5,396c0,41.406-33.579,75-75,75c-41.406,0-75-33.579-75-75c0-41.406,33.579-75,75-75
				C299.906,321,333.5,354.579,333.5,396z" fill="#ffb729" class="colore7ad4f svgShape"></path>
        <circle cx="258.5" cy="396" r="55" fill="#edc16b" class="coloredc96b svgShape"></circle>
      </g>
      <path d="M338.4,58.32L368.5,111l-180.713,15L8.5,111l30.1-52.68C44.72,47.61,56.11,41,68.45,41
			c9.395,0,226.272,0,240.1,0C320.89,41,332.28,47.61,338.4,58.32z" fill="#dab262" class="colorda6275 svgShape"></path>
      <path d="M288.5,81h-200V31.7c0-8.67,7.03-15.7,15.7-15.7h168.6c8.67,0,15.7,7.03,15.7,15.7V81z" fill="#f2d498" class="colorf2de98 svgShape"></path>
      <path d="M308.5,151c0,16.57-13.43,30-30,30s-30-13.43-30-30c0,16.57-13.43,30-30,30s-30-13.43-30-30
			c0,16.57-13.43,30-30,30s-30-13.43-30-30c0,16.57-13.43,30-30,30s-30-13.43-30-30c0,16.57-13.43,30-30,30
			c-16.466,0-30-13.34-30-30v-40h360v40c0,16.663-13.537,30-30,30C321.93,181,308.5,167.57,308.5,151z" fill="#debf83" class="colorde8393 svgShape"></path>
      <g fill="#000000" class="color000000 svgShape">
        <path d="M273.5,376c2.762,0,5-2.238,5-5s-2.238-5-5-5h-10v-5c0-2.762-2.238-5-5-5s-5,2.238-5,5v5h-10c-2.762,0-5,2.238-5,5v25
				c0,2.762,2.238,5,5,5h25v15h-25c-2.762,0-5,2.238-5,5s2.238,5,5,5h10v5c0,2.762,2.238,5,5,5s5-2.238,5-5v-5h10
				c2.762,0,5-2.238,5-5v-25c0-2.762-2.238-5-5-5h-25v-15H273.5z" fill="#000000" class="color000000 svgShape"></path>
        <path d="M258.5,336c-33.084,0-60,26.916-60,60s26.916,60,60,60s60-26.916,60-60S291.584,336,258.5,336z M258.5,446
				c-27.57,0-50-22.43-50-50s22.43-50,50-50s50,22.43,50,50S286.07,446,258.5,446z" fill="#000000" class="color000000 svgShape"></path>
        <path d="M503.5,461h-40v-20h25c2.762,0,5-2.238,5-5v-30c0-2.762-2.238-5-5-5h-20v-20h5c2.762,0,5-2.238,5-5v-30
				c0-2.762-2.238-5-5-5h-15V206h25c4.338,0,6.623-5.174,3.686-8.379l-55-60c-1.98-2.16-5.39-2.161-7.371,0l-55,60
				c-2.931,3.198-0.661,8.379,3.686,8.379h25v135h-50V184.537c14.44-4.314,25-17.712,25-33.537v-40c0-0.806-0.246-1.758-0.659-2.48
				L342.74,55.843C335.746,43.604,322.646,36,308.549,36H293.5v-4.3c0-11.414-9.286-20.7-20.7-20.7H104.2
				c-11.414,0-20.7,9.286-20.7,20.7V36H68.451c-14.097,0-27.197,7.604-34.19,19.843L4.159,108.52C3.741,109.251,3.5,110.2,3.5,111
				v40c0,15.824,10.56,29.223,25,33.537V371h-5c-2.762,0-5,2.238-5,5v15h-10c-2.762,0-5,2.238-5,5v20c0,2.762,2.238,5,5,5h148.015
				c11.283,46.019,52.854,80,101.985,80c28.544,0,54.458-11.454,73.404-30H353.5v25c0,2.762,2.238,5,5,5h145c2.762,0,5-2.238,5-5
				v-30C508.5,463.238,506.262,461,503.5,461z M453.5,461c-23.497,0-89.149,0-112.596,0c4.861-6.149,9.047-12.854,12.451-20H453.5
				V461z M163.631,401h15.041c1.135,18.299,8.447,34.944,19.874,47.884l-10.629,10.629C173.79,443.83,164.8,423.434,163.631,401z
				 M148.5,251h35v71.596c-12.95,13.229-22.437,29.856-26.985,48.404H148.5V251z M228.5,251v44.374
				c-12.869,3.844-24.712,10.089-35,18.222V251H228.5z M322.013,325.417l-10.63,10.629c-12.94-11.427-29.585-18.739-47.884-19.874
				v-15.041C285.933,302.3,306.33,311.29,322.013,325.417z M353.369,391h-15.041c-1.135-18.299-8.447-34.944-19.874-47.884
				l10.63-10.629C343.21,348.17,352.2,368.566,353.369,391z M318.454,448.884c11.427-12.94,18.739-29.585,19.874-47.884h15.041
				c-1.169,22.434-10.159,42.83-24.285,58.513L318.454,448.884z M258.5,466c-38.598,0-70-31.402-70-70s31.402-70,70-70
				s70,31.402,70,70S297.098,466,258.5,466z M163.631,391c1.169-22.434,10.159-42.83,24.285-58.513l10.629,10.629
				c-11.427,12.94-18.739,29.585-19.874,47.884H163.631z M253.5,316.172c-18.299,1.135-34.944,8.446-47.884,19.874l-10.629-10.629
				c15.683-14.126,36.08-23.116,58.513-24.285V316.172z M205.616,455.954c12.94,11.427,29.585,18.739,47.884,19.874v15.041
				c-22.433-1.169-42.83-10.159-58.513-24.285L205.616,455.954z M263.5,475.828c18.299-1.135,34.944-8.446,47.884-19.874
				l10.63,10.629c-15.684,14.126-36.08,23.116-58.513,24.285V475.828z M483.5,431c-15.973,0-110.392,0-126.006,0
				c2.271-6.406,3.938-13.095,4.93-20c24.903,0,94.273,0,121.076,0V431z M458.5,401h-95.122c0.315-6.682,0.013-13.267-0.954-20
				H458.5V401z M468.5,371c-14.29,0-98.494,0-108.015,0c-1.707-6.963-4.108-13.656-7.129-20c24.797,0,90.275,0,115.145,0V371z
				 M403.5,196h-18.634l43.634-47.601L472.134,196H453.5c-2.762,0-5,2.238-5,5v140h-40V201C408.5,198.238,406.262,196,403.5,196z
				 M93.5,31.7c0-5.9,4.8-10.7,10.7-10.7h168.6c5.9,0,10.7,4.8,10.7,10.7V76h-190V31.7z M42.943,60.804
				C48.16,51.673,57.935,46,68.451,46H83.5v35c0,2.762,2.238,5,5,5h200c2.762,0,5-2.238,5-5V46h15.049
				c10.517,0,20.291,5.673,25.509,14.804L359.884,106H17.116L42.943,60.804z M13.5,151v-35h350v35c0,13.881-11.325,25-25,25
				c-13.785,0-25-11.215-25-25v-20c0-2.762-2.238-5-5-5s-5,2.238-5,5v20c0,13.785-11.215,25-25,25s-25-11.215-25-25v-20
				c0-2.762-2.238-5-5-5s-5,2.238-5,5v20c0,13.785-11.215,25-25,25s-25-11.215-25-25v-20c0-2.762-2.238-5-5-5s-5,2.238-5,5v20
				c0,13.785-11.215,25-25,25s-25-11.215-25-25v-20c0-2.762-2.238-5-5-5s-5,2.238-5,5v20c0,13.785-11.215,25-25,25s-25-11.215-25-25
				v-20c0-2.762-2.238-5-5-5s-5,2.238-5,5v20c0,13.785-11.215,25-25,25C24.839,176,13.5,164.894,13.5,151z M68.5,169.013
				C74.63,179.183,85.784,186,98.5,186s23.87-6.817,30-16.987c6.13,10.17,17.284,16.987,30,16.987s23.87-6.817,30-16.987
				c6.13,10.17,17.284,16.987,30,16.987s23.87-6.817,30-16.987c6.13,10.17,17.284,16.987,30,16.987s23.87-6.817,30-16.987
				c6.13,10.17,17.284,16.987,30,16.987v142.074C318.964,305.102,290.138,291,258.5,291c-6.838,0-13.523,0.665-20,1.919V246
				c0-2.762-2.238-5-5-5h-90c-2.762,0-5,2.238-5,5v100h-100V186C51.216,186,62.37,179.183,68.5,169.013z M38.5,356h100v15h-100V356z
				 M28.5,381h126.076c-0.472,3.288-0.795,6.623-0.954,10H28.5V381z M13.5,411v-10c17.397,0,116.492,0,140.122,0
				c0.159,3.377,0.482,6.712,0.954,10H13.5z M498.5,491h-135v-20c16.481,0,118.948,0,135,0V491z" fill="#000000" class="color000000 svgShape"></path>
      </g>
    </g>
  </g>
</svg>
