<svg xmlns="http://www.w3.org/2000/svg" xml:space="preserve" viewBox="0 0 512 512" enable-background="new 0 0 512 512" id="11474912">
  <g id="_x33_7_x2C__Product_Development_x2C__Innovation_x2C__Creation_x2C__Design_x2C__Launch_x2C__Strategy" fill="#000000" class="color000000 svgShape">
    <g fill="#000000" class="color000000 svgShape">
      <path d="M271,215.668v10.533c0,8.17-6.63,14.8-14.8,14.8h-0.4c-8.17,0-14.8-6.63-14.8-14.8v-10.533H271z" fill="#5c5c5c" class="color575564 svgShape"></path>
      <polygon points="256 506.001 81 506.001 81 346.001 256 266.001 271 397.668" fill="#d6ab57" class="colord67f57 svgShape"></polygon>
      <path d="M431,346.001v135l-87.5,12.5l-87.5-12.5v-215L431,346.001z" fill="#c89e4b" class="colorc8694b svgShape"></path>
      <path d="M151,166.001c5.52,0,10,4.48,10,10c0,4.42-2.87,8.17-6.84,9.48c-0.99,0.34-2.06,0.52-3.16,0.52
			c-4.91,0-8.99-3.54-9.84-8.21c-0.1-0.58-0.16-1.18-0.16-1.79C141,170.481,145.48,166.001,151,166.001z" fill="#debf83" class="colorde8393 svgShape"></path>
      <rect width="75" height="35" x="306" y="421.001" fill="#ffb729" class="coloredc96b svgShape"></rect>
      <rect width="40" height="40" x="131" y="346.001" fill="#ffb729" class="coloredc96b svgShape"></rect>
      <rect width="175" height="25" x="256" y="481.001" fill="#ffb729" class="coloredc96b svgShape"></rect>
      <circle cx="496" cy="186.001" r="10" fill="#debf83" class="colorde8393 svgShape"></circle>
      <path d="M471,126.001c5.52,0,10,4.48,10,10s-4.48,10-10,10c-2.93,0-5.57-1.26-7.4-3.28
			c-1.62-1.77-2.6-4.13-2.6-6.72c0-1.88,0.52-3.64,1.43-5.14c1.63-2.72,4.52-4.6,7.86-4.83
			C470.52,126.011,470.76,126.001,471,126.001z" fill="#debf83" class="colorde8393 svgShape"></path>
      <polygon points="431 266.001 466 346.001 431 346.001 291 346.001 256 266.001" fill="#dfba70" class="colordf9570 svgShape"></polygon>
      <path d="M430.8 172.551c3.23 3.56 5.2 8.27 5.2 13.45 0 11.05-8.95 20-20 20s-20-8.95-20-20c0-1.22.11-2.42.33-3.58 1.68-9.34 9.84-16.42 19.67-16.42C421.87 166.001 427.15 168.531 430.8 172.551zM431 106.001c0 1.88-.52 3.64-1.43 5.14-1.74 2.91-4.93 4.86-8.57 4.86-5.52 0-10-4.48-10-10 0-5.52 4.48-10 10-10S431 100.481 431 106.001z" fill="#debf83" class="colorde8393 svgShape"></path>
      <path d="M388.08,136.001h-50.83c0-44.87-36.38-81.25-81.25-81.25s-81.25,36.38-81.25,81.25h-50.83
			c0-6.05,0.41-12,1.2-17.83c11.78,2.71,23.89-3.98,27.69-15.7c3.81-11.72-2.05-24.25-13.19-28.98
			c5.68-10.56,12.76-20.25,20.98-28.84c7.94,9.11,21.66,10.81,31.63,3.57s12.59-20.84,6.36-31.21c10.59-5.12,21.98-8.87,33.92-11.01
			c1.06,12.05,11.17,21.5,23.49,21.5s22.43-9.45,23.49-21.5c11.94,2.14,23.33,5.89,33.92,11.01c-6.23,10.37-3.61,23.97,6.36,31.21
			s23.69,5.54,31.63-3.57c8.22,8.59,15.3,18.28,20.98,28.84c-11.14,4.73-17,17.26-13.19,28.98c3.8,11.72,15.91,18.41,27.69,15.7
			C387.67,124.001,388.08,129.951,388.08,136.001z" fill="#e4be74" class="color747ae4 svgShape"></path>
      <path d="M371,176.001c0,0.61-0.06,1.21-0.16,1.79c-0.85,4.67-4.93,8.21-9.84,8.21
			c-1.1,0-2.17-0.18-3.16-0.52c-3.97-1.31-6.84-5.06-6.84-9.48c0-5.52,4.48-10,10-10S371,170.481,371,176.001z" fill="#debf83" class="colorde8393 svgShape"></path>
      <path d="M231,206.001v-21.02c-17.8-9.1-30-27.61-30-48.98c0-30.38,24.62-55,55-55s55,24.62,55,55
			c0,21.37-12.2,39.88-30,48.98v21.02H231z" fill="#ffffff" class="colorf2de98 svgShape"></path>
      <path d="M291,201.001v20c-21.872,0-36.066,0-70,0v-20C231.384,201.001,280.629,201.001,291,201.001z" fill="#696969" class="color645f74 svgShape"></path>
      <polygon points="256 266.001 221 346.001 171 346.001 131 346.001 81 346.001 46 346.001 81 266.001" fill="#dfba70" class="colordf9570 svgShape"></polygon>
      <path d="M115.67 182.421c.22 1.16.33 2.36.33 3.58 0 11.05-8.95 20-20 20s-20-8.95-20-20c0-5.18 1.97-9.89 5.2-13.45 3.65-4.02 8.93-6.55 14.8-6.55C105.83 166.001 113.99 173.081 115.67 182.421zM91 96.001c5.52 0 10 4.48 10 10 0 5.52-4.48 10-10 10-3.64 0-6.83-1.95-8.57-4.86-.91-1.5-1.43-3.26-1.43-5.14C81 100.481 85.48 96.001 91 96.001zM49.57 130.861c.91 1.5 1.43 3.26 1.43 5.14 0 2.59-.98 4.95-2.6 6.72-1.83 2.02-4.47 3.28-7.4 3.28-5.52 0-10-4.48-10-10s4.48-10 10-10c.24 0 .48.01.71.03C45.05 126.261 47.94 128.141 49.57 130.861z" fill="#debf83" class="colorde8393 svgShape"></path>
      <circle cx="16" cy="186.001" r="10" fill="#debf83" class="colorde8393 svgShape"></circle>
      <g fill="#000000" class="color000000 svgShape">
        <path d="M435.581,263.997c-0.77-1.761-2.577-2.996-4.581-2.996c-19.422,0-330.578,0-350,0c-1.936,0-3.782,1.17-4.581,2.996
				c-11.561,26.426-24.365,55.69-35,80c-1.442,3.299,0.977,7.004,4.581,7.004h30v155c0,2.762,2.238,5,5,5c19.422,0,330.578,0,350,0
				c2.762,0,5-2.238,5-5v-155h30c3.6,0,6.025-3.702,4.581-7.004C459.413,318.47,445.581,286.855,435.581,263.997z M84.271,271.001
				h164.084l-30.625,70c-14.372,0-145.323,0-164.084,0L84.271,271.001z M136,351.001h30v30h-30V351.001z M86,351.001h40v35
				c0,2.762,2.238,5,5,5h40c2.762,0,5-2.238,5-5v-35h45c1.986,0,3.784-1.176,4.581-2.996L251,289.905v211.097H86V351.001z
				 M261,501.001v-15h165v15H261z M426,476.001H261V289.905l25.419,58.101c0.797,1.82,2.595,2.996,4.581,2.996h135V476.001z
				 M294.271,341.001l-30.625-70h164.084l30.625,70H294.271z" fill="#000000" class="color000000 svgShape"></path>
        <path d="M306 461.001h75c2.762 0 5-2.238 5-5v-35c0-2.762-2.238-5-5-5h-75c-2.762 0-5 2.238-5 5v35C301 458.763 303.238 461.001 306 461.001zM311 426.001h65v25h-65V426.001zM217.813 34.659c.687 2.113 2.646 3.456 4.755 3.456 3.388 0 5.807-3.312 4.757-6.546l-1.671-5.145c-.854-2.626-3.673-4.063-6.301-3.211-2.626.854-4.063 3.674-3.211 6.301L217.813 34.659zM171.418 68.368l-4.376-3.18c-2.233-1.621-5.36-1.128-6.984 1.105-1.623 2.234-1.128 5.361 1.105 6.984l4.376 3.18c.888.645 1.916.955 2.936.955C173.329 77.413 175.302 71.191 171.418 68.368zM346.461 76.458l4.376-3.18c2.233-1.623 2.729-4.75 1.105-6.984-1.624-2.233-4.749-2.727-6.984-1.105l-4.376 3.18c-2.233 1.623-2.729 4.75-1.105 6.984C341.103 77.59 344.229 78.079 346.461 76.458zM289.432 38.115c2.107 0 4.068-1.344 4.755-3.456l1.671-5.145c.853-2.627-.585-5.447-3.211-6.301-2.63-.849-5.447.586-6.301 3.211l-1.671 5.145C283.625 34.804 286.045 38.115 289.432 38.115zM316 136.001c0-33.084-26.916-60-60-60s-60 26.916-60 60c0 21.603 11.417 41.234 30 51.955v8.045h-5c-2.762 0-5 2.238-5 5v20c0 2.762 2.238 5 5 5h15v.2c0 10.918 8.882 19.8 19.8 19.8h.4c10.918 0 19.8-8.882 19.8-19.8v-.2h15c2.762 0 5-2.238 5-5v-20c0-2.762-2.238-5-5-5h-5v-8.045C304.583 177.236 316 157.604 316 136.001zM266 226.202c0 5.403-4.396 9.8-9.8 9.8h-.4c-5.403 0-9.8-4.396-9.8-9.8v-.2h20V226.202zM286 216.001c-15.121 0-44.846 0-60 0v-10c13.856 0 45.957 0 60 0V216.001zM261 196.001v-30.503c11.397-2.323 20-12.424 20-24.497 0-2.762-2.238-5-5-5s-5 2.238-5 5c0 8.271-6.729 15-15 15s-15-6.729-15-15c0-2.762-2.238-5-5-5s-5 2.238-5 5c0 12.073 8.603 22.174 20 24.497v30.503h-15v-11.016c0-1.878-1.052-3.597-2.724-4.452C216.452 171.93 206 154.867 206 136.001c0-27.57 22.43-50 50-50s50 22.43 50 50c0 18.865-10.452 35.929-27.276 44.532-1.672.855-2.724 2.574-2.724 4.452v11.016H261z" fill="#000000" class="color000000 svgShape"></path>
        <path d="M123.92,141.001h50.83c2.762,0,5-2.238,5-5c0-42.044,34.206-76.25,76.25-76.25s76.25,34.206,76.25,76.25
				c0,2.762,2.238,5,5,5h50.83c2.762,0,5-2.238,5-5c0-6.178-0.419-12.402-1.245-18.502c-0.397-2.915-3.208-4.857-6.076-4.201
				c-9.288,2.141-18.871-3.295-21.813-12.373c-3-9.228,1.466-19.043,10.389-22.831c2.702-1.148,3.845-4.376,2.449-6.971
				c-5.849-10.875-13.173-20.944-21.771-29.929c-2.038-2.13-5.457-2.035-7.382,0.172c-6.36,7.3-17.076,8.509-24.924,2.809
				c-7.724-5.608-9.925-16.409-5.011-24.589c1.511-2.515,0.541-5.795-2.109-7.076c-11.164-5.397-23.012-9.243-35.215-11.431
				c-2.884-0.516-5.604,1.553-5.862,4.483c-0.836,9.498-8.967,16.938-18.51,16.938s-17.674-7.44-18.51-16.938
				c-0.259-2.946-3.002-5.004-5.862-4.483c-12.203,2.188-24.051,6.033-35.215,11.431c-2.642,1.277-3.626,4.553-2.109,7.076
				c4.914,8.18,2.713,18.98-5.011,24.589c-7.847,5.696-18.563,4.489-24.924-2.809c-1.86-2.134-5.268-2.379-7.382-0.172
				c-8.598,8.984-15.922,19.054-21.771,29.929c-1.397,2.596-0.252,5.823,2.449,6.971c8.923,3.788,13.389,13.604,10.388,22.835
				c-2.942,9.073-12.52,14.504-21.813,12.369c-2.869-0.657-5.68,1.288-6.076,4.201c-0.826,6.1-1.245,12.324-1.245,18.502
				C118.92,138.763,121.158,141.001,123.92,141.001z M129.505,123.771c12.448,0.465,24.028-7.317,28.06-19.754
				c4.03-12.395-0.699-25.48-11.104-32.481c4.141-7.021,8.961-13.646,14.395-19.78c9.875,7.714,23.779,8.163,34.313,0.512
				c10.359-7.522,14.262-21.114,10.082-32.815c7.499-3.27,15.296-5.801,23.285-7.56c3.443,12.063,14.431,20.609,27.465,20.609
				s24.021-8.546,27.465-20.609c7.989,1.759,15.786,4.29,23.285,7.56c-4.18,11.701-0.277,25.293,10.082,32.815
				c10.534,7.649,24.437,7.201,34.313-0.512c5.434,6.135,10.254,12.759,14.395,19.78c-10.405,7.001-15.135,20.086-11.105,32.478
				c4.018,12.394,15.523,20.223,28.061,19.758c0.229,2.401,0.393,4.816,0.487,7.23h-40.888c-2.6-45.239-40.215-81.25-86.094-81.25
				s-83.494,36.011-86.094,81.25h-40.888C129.112,128.587,129.275,126.172,129.505,123.771z" fill="#000000" class="color000000 svgShape"></path>
        <path d="M496 171.001c-6.516 0-12.059 4.184-14.125 10h-41.378c-.568-2.785-1.603-5.402-3.015-7.769l26.416-24.024c9.917 5.354 22.102-1.849 22.102-13.207 0-6.891-4.676-12.696-11.017-14.447l-3.285-45.94c-.197-2.755-2.577-4.842-5.344-4.631-2.755.197-4.828 2.59-4.631 5.344l3.285 45.931c-1.289.564-2.486 1.298-3.557 2.184L435.7 108.988c1.892-9.335-5.281-17.987-14.7-17.987-8.271 0-15 6.729-15 15 0 12.679 14.837 19.597 24.549 11.559l25.751 15.455c-.598 2.951-.301 6.015.871 8.794l-26.418 24.026c-13.125-9.628-31.849-4.294-37.95 10.863l-17.012-3.09c-1.151-7.135-7.335-12.607-14.791-12.607-8.271 0-15 6.729-15 15 0 4.799 2.274 9.068 5.791 11.815l-7.374 22.123c-.873 2.62.542 5.451 3.162 6.324 2.619.873 5.451-.543 6.324-3.162l7.372-22.115c5.444-.099 10.181-3.109 12.728-7.539l17.011 3.09c.287 13.537 11.381 24.463 24.986 24.463 12.073 0 22.174-8.603 24.497-20h41.378c2.066 5.816 7.609 10 14.125 10 8.271 0 15-6.729 15-15S504.271 171.001 496 171.001zM471 141.001c-2.757 0-5-2.243-5-5s2.243-5 5-5 5 2.243 5 5S473.757 141.001 471 141.001zM421 111.001c-2.757 0-5-2.243-5-5s2.243-5 5-5 5 2.243 5 5S423.757 111.001 421 111.001zM361 181.001c-2.757 0-5-2.243-5-5s2.243-5 5-5 5 2.243 5 5S363.757 181.001 361 181.001zM416 201.001c-8.271 0-15-6.729-15-15s6.729-15 15-15 15 6.729 15 15S424.271 201.001 416 201.001zM496 191.001c-2.757 0-5-2.243-5-5s2.243-5 5-5 5 2.243 5 5S498.757 191.001 496 191.001zM71.503 191.001c2.323 11.397 12.424 20 24.497 20 13.605 0 24.699-10.926 24.986-24.463l17.011-3.09c2.547 4.43 7.284 7.44 12.728 7.539l7.372 22.115c.874 2.625 3.709 4.034 6.324 3.162 2.62-.873 4.035-3.704 3.162-6.324l-7.374-22.123c3.517-2.747 5.791-7.016 5.791-11.815 0-8.271-6.729-15-15-15-7.455 0-13.639 5.472-14.791 12.607l-17.012 3.09c-3.699-9.19-12.7-15.697-23.198-15.697-5.514 0-10.614 1.798-14.753 4.834l-26.418-24.026c1.17-2.775 1.47-5.838.871-8.794l25.751-15.455c2.596 2.148 5.924 3.441 9.549 3.441 8.271 0 15-6.729 15-15s-6.729-15-15-15-15 6.729-15 15c0 1.023.104 2.021.3 2.987l-25.751 15.455c-1.07-.886-2.268-1.62-3.557-2.184l3.285-45.931c.197-2.754-1.876-5.146-4.631-5.344-2.749-.192-5.146 1.878-5.344 4.631l-3.285 45.94C30.676 123.306 26 129.11 26 136.001c0 8.271 6.729 15 15 15 2.568 0 4.987-.651 7.102-1.793l26.416 24.024c-1.412 2.367-2.447 4.983-3.015 7.769H30.125c-2.066-5.816-7.609-10-14.125-10-8.271 0-15 6.729-15 15s6.729 15 15 15c6.516 0 12.059-4.184 14.125-10H71.503zM151 171.001c2.757 0 5 2.243 5 5s-2.243 5-5 5-5-2.243-5-5S148.243 171.001 151 171.001zM111 186.001c0 8.271-6.729 15-15 15s-15-6.729-15-15 6.729-15 15-15S111 177.73 111 186.001zM91 101.001c2.757 0 5 2.243 5 5s-2.243 5-5 5-5-2.243-5-5S88.243 101.001 91 101.001zM36 136.001c0-2.757 2.243-5 5-5s5 2.243 5 5-2.243 5-5 5S36 138.758 36 136.001zM16 191.001c-2.757 0-5-2.243-5-5s2.243-5 5-5 5 2.243 5 5S18.757 191.001 16 191.001z" fill="#000000" class="color000000 svgShape"></path>
      </g>
    </g>
  </g>
</svg>
