<svg xmlns="http://www.w3.org/2000/svg" xml:space="preserve" viewBox="0 0 512 512" enable-background="new 0 0 512 512" id="11474882">
  <g id="_x30_7_x2C__Research_x2C__Study_x2C__Discovery_x2C__Investigation_x2C__Analysis_x2C__Insights" fill="#000000" class="color000000 svgShape">
    <g fill="#000000" class="color000000 svgShape">
      <path d="M108.674,466.18l-33.98,33.97c-7.79,7.8-20.44,7.8-28.24,0l-7.11-7.11c-7.8-7.8-7.8-20.45,0-28.24
			l33.98-33.97l24.46,10.89L108.674,466.18z" fill="#e4be74" class="color747ae4 svgShape"></path>
      <polygon points="139.104 421.61 119.004 441.72 99.694 437 97.784 420.5 117.884 400.39 134.994 401" fill="#5c5c5c" class="color575564 svgShape"></polygon>
      <path d="M454.694,31c-2.339,0-279.554,0-282.4,0c-13.14,0-23.8,10.66-23.8,23.8c0,19.25,0,411.369,0,427.4
			c0,13.14,10.66,23.8,23.8,23.8h282.4c13.14,0,23.8-10.66,23.8-23.8c0-20.801,0-406.469,0-427.4
			C478.494,41.66,467.834,31,454.694,31z" fill="#ffb729" class="colordf9570 svgShape"></path>
      <path d="M448.494,391.1v11.33c0,40.63-32.94,73.57-73.57,73.57h-16.33l17.65-70L448.494,391.1z" fill="#ede5d4" class="colord6d4ed svgShape"></path>
      <path d="M448.494,391.1c0,13.75-11.15,24.9-24.9,24.9h-40.1v35.1c0,13.75-11.15,24.9-24.9,24.9h-180.1
			c0-0.153,0-414.891,0-415c6.087,0,263.914,0,270,0V391.1z" fill="#ffffff" class="colore8e6f1 svgShape"></path>
      <rect width="40" height="40" x="208.494" y="191" fill="#f9d99a" class="color9ae9f9 svgShape"></rect>
      <path d="M313.494,325.2c0.42,54.47-43.53,99.71-97.98,100.78c-15.247,0.304-29.718-2.816-42.68-8.6
			c-9.185-4.092-19.925-2.005-26.98,5.05l-2.97,2.96c-7.321-7.321-21.601-21.601-28.78-28.78l2.96-2.97
			c7.09-7.09,9.13-17.82,5.05-26.98c-5.8-13-8.9-27.46-8.6-42.68c1.076-54.62,46.652-98.535,100.78-97.98
			C268.891,226.462,313.059,270.588,313.494,325.2z" fill="#696969" class="color645f74 svgShape"></path>
      <path d="M213.494,251c41.42,0,75,33.58,75,75s-33.58,75-75,75s-75-33.58-75-75S172.074,251,213.494,251z" fill="#d7b87a" class="color7ad7b4 svgShape"></path>
      <polygon points="126.064 448.78 108.674 466.18 73.324 430.83 90.714 413.43 97.784 420.5 119.004 441.72" fill="#f9d99a" class="color9ae9f9 svgShape"></polygon>
      <rect width="40" height="40" x="208.494" y="106" fill="#f9d99a" class="color9ae9f9 svgShape"></rect>
      <path d="M383.494,71h-140c0-13.112,0-27.653,0-41c0-13.25,10.75-24,24-24h92c13.25,0,24,10.75,24,24
			C383.494,43.357,383.494,57.907,383.494,71z" fill="#696969" class="color645f74 svgShape"></path>
      <polygon points="259.644 307.15 203.624 363.18 169.534 329.09 183.674 314.95 203.624 334.89 245.504 293.01" fill="#ffffff" class="colore8e6f1 svgShape"></polygon>
      <g fill="#000000" class="color000000 svgShape">
        <path d="M454.694,26h-66.483c-1.955-14.103-14.085-25-28.718-25h-92c-14.633,0-26.762,10.897-28.718,25h-66.483
				c-15.88,0-28.8,12.92-28.8,28.8V247.94c-20.944,18.8-34.386,45.844-34.979,75.944c-0.308,15.603,2.73,30.678,9.03,44.808
				c3.208,7.198,1.596,15.803-4.013,21.412l-2.967,2.967c-1.953,1.952-1.953,5.118,0,7.07l0.249,0.249l-13.029,13.036l-3.536-3.536
				c-1.951-1.953-5.119-1.953-7.07,0l-51.371,51.37c-9.735,9.734-9.735,25.575,0,35.311l7.115,7.115v0.001
				c9.735,9.733,25.576,9.736,35.311-0.001c0.119-0.119,34.788-34.784,51.37-51.371c1.953-1.952,1.953-5.118,0-7.07l-3.528-3.528
				l13.03-13.036c0.129,0.081,1.566,1.997,4.388,1.654V482.2c0,15.88,12.92,28.8,28.8,28.8h282.4c15.88,0,28.8-12.92,28.8-28.8V54.8
				C483.494,38.92,470.574,26,454.694,26z M443.494,391.1c0,10.973-8.928,19.9-19.9,19.9h-40.1c-2.762,0-5,2.238-5,5v35.1
				c0,10.973-8.928,19.9-19.9,19.9c-10.123,0-164.21,0-175.1,0v-44.346c10.027,2.995,20.716,4.543,32.114,4.325
				c57.175-1.127,103.328-48.595,102.883-105.814c-0.342-43.677-27.295-80.772-64.997-96.297V191c0-2.762-2.238-5-5-5h-40
				c-2.762,0-5,2.238-5,5v30.484c-6.873,0.66-13.562,1.993-20,3.931V66h55v5c0,2.762,2.238,5,5,5h140c2.762,0,5-2.238,5-5v-5h55
				C443.494,80.366,443.494,375.384,443.494,391.1z M442.447,414.286c-5.285,30.178-30.354,53.623-61.306,56.419
				c4.574-5.254,7.354-12.109,7.354-19.606V421h35.1C430.736,421,437.299,418.48,442.447,414.286z M243.494,225.339
				c-15.896-4.717-29.474-4.299-30-4.338v-25h30V225.339z M248.494,30c0-10.477,8.523-19,19-19h92c10.477,0,19,8.523,19,19v36h-130
				V30z M153.494,54.8c0-10.366,8.434-18.8,18.8-18.8h66.2v20h-60c-2.762,0-5,2.238-5,5v167.987
				c-7.082,2.947-13.784,6.647-20,11.004V54.8z M118.513,324.082c1.02-51.69,43.959-93.49,95.74-93.079
				c51.562,0.403,93.836,42.679,94.238,94.24c0.403,51.771-41.353,94.719-93.08,95.738c-14.176,0.283-27.889-2.526-40.539-8.165
				c-10.709-4.775-23.459-2.542-31.977,5.514l-21.731-21.731c8.062-8.522,10.288-21.267,5.514-31.978
				C120.981,351.843,118.234,338.204,118.513,324.082z M71.163,496.616c-5.835,5.836-15.331,5.836-21.17-0.001v0.001l-7.114-7.115
				c-5.837-5.837-5.837-15.334-0.001-21.17l30.439-30.438l28.284,28.284L71.163,496.616z M108.671,459.107l-28.284-28.284
				l10.326-10.326c13.38,13.38,7.431,7.431,28.283,28.283L108.671,459.107z M119.005,434.646l-14.149-14.149l13.029-13.036
				l14.15,14.15L119.005,434.646z M473.494,482.2c0,10.366-8.434,18.8-18.8,18.8h-282.4c-10.366,0-18.8-8.434-18.8-18.8v-59.343
				c5.236-2.968,11.695-3.409,17.306-0.908c0.894,0.399,1.793,0.782,2.694,1.155V476c0,2.762,2.238,5,5,5
				c9.424,0,187.111,0,196.43,0c43.324,0,78.57-35.246,78.57-78.57c0-44.285,0-305.234,0-341.43c0-2.762-2.238-5-5-5h-60V36h66.2
				c10.366,0,18.8,8.434,18.8,18.8V482.2z" fill="#000000" class="color000000 svgShape"></path>
        <path d="M213.494,406c44.112,0,80-35.888,80-80s-35.888-80-80-80s-80,35.888-80,80S169.382,406,213.494,406z M213.494,256
				c38.598,0,70,31.402,70,70s-31.402,70-70,70s-70-31.402-70-70S174.896,256,213.494,256z" fill="#000000" class="color000000 svgShape"></path>
        <path d="M200.085 366.71c1.951 1.953 5.119 1.953 7.07 0l56.024-56.024c1.953-1.952 1.953-5.118 0-7.07l-14.143-14.143c-1.953-1.955-5.122-1.95-7.07 0l-38.347 38.347-16.407-16.405c-1.953-1.953-5.119-1.952-7.07-.001L166 325.555c-1.958 1.958-1.947 5.126 0 7.071L200.085 366.71zM183.678 322.021l16.407 16.405c1.951 1.953 5.119 1.953 7.07 0l38.347-38.347 7.071 7.071-48.953 48.953-27.014-27.013L183.678 322.021zM268.494 51h90c2.762 0 5-2.238 5-5s-2.238-5-5-5h-90c-2.762 0-5 2.238-5 5S265.732 51 268.494 51zM248.494 101h-40c-2.762 0-5 2.238-5 5v40c0 2.762 2.238 5 5 5h40c2.762 0 5-2.238 5-5v-40C253.494 103.238 251.256 101 248.494 101zM243.494 141h-30v-30h30V141zM273.494 116h75c2.762 0 5-2.238 5-5s-2.238-5-5-5h-75c-2.762 0-5 2.238-5 5S270.732 116 273.494 116zM273.494 131c-2.762 0-5 2.238-5 5s2.238 5 5 5h150c2.762 0 5-2.238 5-5s-2.238-5-5-5H273.494zM273.494 201h75c2.762 0 5-2.238 5-5s-2.238-5-5-5h-75c-2.762 0-5 2.238-5 5S270.732 201 273.494 201zM423.494 216h-150c-2.762 0-5 2.238-5 5s2.238 5 5 5h150c2.762 0 5-2.238 5-5S426.256 216 423.494 216z" fill="#000000" class="color000000 svgShape"></path>
      </g>
    </g>
  </g>
</svg>
