<svg xmlns="http://www.w3.org/2000/svg" xml:space="preserve" viewBox="0 0 512 512" enable-background="new 0 0 512 512" id="11474921">
  <g id="_x34_6_x2C__Target_Audience_x2C__Consumer_x2C__Buyer_x2C__Customer_x2C__Market_x2C__Demographic" fill="#000000" class="color000000 svgShape">
    <g fill="#000000" class="color000000 svgShape">
      <path d="M185.51,172.09c-5.867-14.224-3.145-30.517,7.27-42.02l-0.93-16.67
			c13.05,5.75,44.63-3.53,57.55-4.4c0.13-0.01,0.25-0.02,0.38-0.02c15.8-0.97,31.14,5.53,41.73,17.3l3.89,4.32
			c14.51,0,26.28,11.77,26.28,26.28c0,4.6,0,10.632,0,15.21H185.51z" fill="#5c5c5c" class="color575564 svgShape"></path>
      <polygon points="278.73 245.65 278.73 269.32 255.96 296.5 233.19 269.32 233.27 245.66 278.72 245.63" fill="#f2e0be" class="colorf2cdbe svgShape"></polygon>
      <polygon points="291.07 273.55 293.5 319 277.93 371.87 263.167 362.5 263.167 295.742" fill="#eadcc1" class="colorc5c1ea svgShape"></polygon>
      <polygon points="249.167 295.397 249.167 364.5 235.35 371.87 220.85 319 220.85 273.55 220.86 273.55" fill="#eadcc1" class="colorc5c1ea svgShape"></polygon>
      <polygon points="268.04 299.81 265.76 314.25 256 319 247.52 314.25 245.11 298.79 245.11 289.72 255.96 289.72 268.04 289.72" fill="#f9d99a" class="color9ae9f9 svgShape"></polygon>
      <polygon points="291.07 273.55 275.37 305.94 255.96 289.72 278.73 269.32" fill="#ffffff" class="colore8e6f1 svgShape"></polygon>
      <polygon points="255.96 289.72 236.55 305.94 220.86 273.55 233.19 269.32 233.23 269.36" fill="#ffffff" class="colore8e6f1 svgShape"></polygon>
      <path d="M367.45 329.22v42.65h-89.52l29.79-92.61 31.83 10.91C356.24 295.89 367.45 311.58 367.45 329.22zM235.35 371.87h-90.8v-42.66c0-17.64 11.21-33.32 27.89-39.05l33.33-11.43v.01L235.35 371.87z" fill="#d2ac60" class="color606cd2 svgShape"></path>
      <polygon points="307.72 279.26 320.5 311.21 277.93 371.87 291.07 273.55" fill="#e4be74" class="color747ae4 svgShape"></polygon>
      <polygon points="220.85 273.55 235.35 371.87 192.78 311.21 205.77 278.74 205.77 278.73" fill="#e4be74" class="color747ae4 svgShape"></polygon>
      <path d="M329.57 180.84c0 7.813-6.341 14.02-14.02 14.02h-4.82l-6.98-14.01 6.98-14.02c4.722.075 1.791.05 4.82 0C323.21 166.83 329.57 173.025 329.57 180.84zM201.27 166.87l6.73 13.975-6.73 14.015h-4.82c-7.69 0-14.02-6.219-14.02-14.02 0-7.592 6.05-13.735 13.51-14C197.28 167.02 199.11 167.04 201.27 166.87z" fill="#f2e0be" class="colorf2cdbe svgShape"></path>
      <path d="M201.27,196.48c0-8.764,0-20.675,0-29.61c9.83-0.81,26.44-5.69,34.08-18.29
			c0,0,25.55,25.88,75.38,18.25c0,8.995,0,20.892,0,29.65c-0.313,29.767-24.441,53.92-54.22,53.92h-1.1
			C225.568,250.4,201.501,226.183,201.27,196.48z" fill="#f6e9cf" class="colorf6decf svgShape"></path>
      <polygon points="81 466 81 486 26 486 26 431 46 431 46 466" fill="#ffb729" class="colorda6275 svgShape"></polygon>
      <polygon points="486 431 486 486 431 486 431 466 466 466 466 431" fill="#ffb729" class="colorda6275 svgShape"></polygon>
      <polygon points="486 26 486 81 466 81 466 46 431 46 431 26" fill="#ffb729" class="colorda6275 svgShape"></polygon>
      <path d="M506,241v30h-25.51C473.1,383.31,383.31,473.1,271,480.49V506h-30v-25.51
			C128.69,473.1,38.9,383.31,31.51,271H6v-30h25.51C38.9,128.69,128.69,38.9,241,31.51V6h30v25.51
			C383.31,38.9,473.1,128.69,480.49,241H506z M426,241h24.43C443.15,145.26,366.74,68.85,271,61.57V86h-30V61.57
			C145.26,68.85,68.85,145.26,61.57,241H86v30H61.57c7.28,95.74,83.69,172.15,179.43,179.43V426h30v24.43
			c95.74-7.28,172.15-83.69,179.43-179.43H426V241z" fill="#debf83" class="colorde8393 svgShape"></path>
      <polygon points="81 26 81 46 46 46 46 81 26 81 26 26" fill="#ffb729" class="colorda6275 svgShape"></polygon>
      <polygon points="265.76 314.25 277.93 371.87 235.35 371.87 247.52 314.25" fill="#f9d07e" class="color7edbf9 svgShape"></polygon>
      <g fill="#000000" class="color000000 svgShape">
        <path d="M506,236h-20.876C475.528,124.917,387.076,36.472,276,26.876V6c0-2.762-2.238-5-5-5h-30c-2.762,0-5,2.238-5,5v20.876
				C124.917,36.472,36.472,124.925,26.876,236H6c-2.762,0-5,2.238-5,5v30c0,2.762,2.238,5,5,5h20.876
				C36.472,387.083,124.925,475.528,236,485.124V506c0,2.762,2.238,5,5,5h30c2.762,0,5-2.238,5-5v-20.876
				C387.083,475.528,475.528,387.076,485.124,276H506c2.762,0,5-2.238,5-5v-30C511,238.238,508.762,236,506,236z M501,266h-20.51
				c-2.634,0-4.816,2.043-4.989,4.672c-7.214,109.559-95.271,197.615-204.829,204.829c-2.629,0.173-4.672,2.355-4.672,4.989V501h-20
				v-20.51c0-2.634-2.043-4.816-4.672-4.989C131.77,468.287,43.713,380.23,36.499,270.672C36.326,268.043,34.144,266,31.51,266H11
				v-20h20.51c2.634,0,4.816-2.043,4.989-4.672C43.713,131.77,131.77,43.713,241.328,36.499c2.629-0.173,4.672-2.355,4.672-4.989V11
				h20v20.51c0,2.634,2.043,4.816,4.672,4.989c109.559,7.214,197.615,95.271,204.829,204.829c0.173,2.629,2.355,4.672,4.989,4.672
				H501V266z" fill="#000000" class="color000000 svgShape"></path>
        <path d="M450.432 246c2.908 0 5.206-2.476 4.985-5.379-7.476-98.267-85.958-176.576-184.038-184.038-2.877-.222-5.379 2.057-5.379 4.985V81h-20V61.568c0-2.926-2.5-5.209-5.379-4.985-98.267 7.476-176.576 85.958-184.038 184.038-.105 1.388.372 2.757 1.318 3.777.946 1.021 2.275 1.602 3.667 1.602H81v20H61.568c-1.392 0-2.721.58-3.667 1.602-.946 1.021-1.424 2.39-1.318 3.777 7.476 98.267 85.958 176.576 184.038 184.038 2.861.228 5.379-2.047 5.379-4.985V431h20v19.432c0 2.911 2.484 5.21 5.379 4.985 98.267-7.476 176.576-85.958 184.038-184.038.22-2.899-2.075-5.379-4.985-5.379H431v-20H450.432zM426 276h18.959C435.663 364.355 364.355 435.663 276 444.959V426c0-2.762-2.238-5-5-5h-30c-2.762 0-5 2.238-5 5v18.959C147.645 435.663 76.337 364.355 67.041 276H86c2.762 0 5-2.238 5-5v-30c0-2.762-2.238-5-5-5H67.041C76.337 147.645 147.645 76.337 236 67.041V86c0 2.762 2.238 5 5 5h30c2.762 0 5-2.238 5-5V67.041C364.355 76.337 435.663 147.645 444.959 236H426c-2.762 0-5 2.238-5 5v30C421 273.762 423.238 276 426 276zM431 51h30v30c0 2.762 2.238 5 5 5h20c2.762 0 5-2.238 5-5V26c0-2.762-2.238-5-5-5h-55c-2.762 0-5 2.238-5 5v20C426 48.762 428.238 51 431 51zM436 31h45v45h-10V46c0-2.762-2.238-5-5-5h-30V31zM26 86h20c2.762 0 5-2.238 5-5V51h30c2.762 0 5-2.238 5-5V26c0-2.762-2.238-5-5-5H26c-2.762 0-5 2.238-5 5v55C21 83.762 23.238 86 26 86zM31 31h45v10H46c-2.762 0-5 2.238-5 5v30H31V31zM486 426h-20c-2.762 0-5 2.238-5 5v30h-30c-2.762 0-5 2.238-5 5v20c0 2.762 2.238 5 5 5h55c2.762 0 5-2.238 5-5v-55C491 428.238 488.762 426 486 426zM481 481h-45v-10h30c2.762 0 5-2.238 5-5v-30h10V481zM81 461H51v-30c0-2.762-2.238-5-5-5H26c-2.762 0-5 2.238-5 5v55c0 2.762 2.238 5 5 5h55c2.762 0 5-2.238 5-5v-20C86 463.238 83.762 461 81 461zM76 481H31v-45h10v30c0 2.762 2.238 5 5 5h30V481z" fill="#000000" class="color000000 svgShape"></path>
        <path d="M341.172,285.438c-21.748-7.454-37.115-12.721-57.44-19.688v-17.081c17.84-9.362,30.441-27.589,31.864-48.812
				c10.464-0.025,18.97-8.544,18.97-19.014c0-6.328-3.119-11.928-7.888-15.387v-8.579c0-16.474-12.799-30.013-28.976-31.194
				l-2.478-2.753c-20.001-22.225-45.852-18.867-46.159-18.919c-12.657,0.849-44.079,9.715-55.2,4.813
				c-3.416-1.504-7.217,1.138-7.008,4.855l0.821,14.656c-9.817,11.983-12.88,27.972-7.743,43.117
				c-1.584,2.774-2.502,5.975-2.502,9.391c0,10.466,8.5,18.981,18.958,19.014c1.358,21.249,13.976,39.512,31.876,48.863v17.002
				c-20.401,6.999-35.611,12.217-57.452,19.71c-18.699,6.415-31.263,24.007-31.263,43.776v42.657c0,2.762,2.238,5,5,5
				c40.914,0,177.609,0,222.893,0c2.762,0,5-2.238,5-5v-42.648C372.446,309.443,359.878,291.85,341.172,285.438z M314.85,310.555
				l-29.256,41.684l9.62-71.983l8.708,2.985L314.85,310.555z M209.569,282.709l7.216-2.476l10.545,71.497l-28.9-41.176
				L209.569,282.709z M232.035,275.002l16.283,14.588l-10.063,8.407l-10.439-21.548L232.035,275.002z M230.551,305.032l1.496,3.088
				c1.423,2.934,5.219,3.735,7.706,1.657l1.777-1.484l0.906,5.821l-6.208,29.407L230.551,305.032z M250.485,300.812l5.474-4.573
				l6.698,5.596l-1.169,7.418h-9.689L250.485,300.812z M279.884,275.001l4.219,1.446l-10.44,21.551l-10.063-8.407L279.884,275.001z
				 M271.604,309.308c0.196,0.122,1.937,2.133,4.819,1.521c1.505-0.324,2.776-1.323,3.448-2.709l2.112-4.359l-5.165,38.648
				l-5.972-28.29L271.604,309.308z M315.734,189.858v-18.029c4.887,0.099,8.831,4.104,8.831,9.015S320.621,189.76,315.734,189.858z
				 M196.495,133.417c0.894-0.991,1.354-2.298,1.28-3.63l-0.554-9.887c16.13,2.08,41.369-5.161,52.529-5.913
				c0.238,0.041,21.639-2.59,38.041,15.633l3.893,4.324c0.948,1.054,2.299,1.655,3.716,1.655c11.732,0,21.277,9.545,21.277,21.278
				v5.006c-1.877-0.11-0.793-0.026-4.143-0.057c-0.795-0.043-1.673-0.077-2.557,0.058c-46.47,7.119-70.095-15.847-71.064-16.815
				c-2.281-2.307-6.143-1.87-7.834,0.921c-6.544,10.793-21.383,15.018-29.794,15.839c-0.007,0-0.013-0.002-0.02-0.002
				c-2.878,0.231-7.489-0.794-13.072,1.913C185.912,152.458,189.221,141.474,196.495,133.417z M187.435,180.844
				c0-5.458,4.86-9.256,8.831-8.946v17.961C191.379,189.76,187.435,185.754,187.435,180.844z M206.266,196.476
				c0-4.715,0-17.922,0-25.221c9.579-1.616,21.903-6.134,29.947-15.403c19.12,14.518,44.81,19.344,69.521,16.661
				c0,7.966,0,15.92,0,23.911c-0.285,27.004-22.368,48.973-49.228,48.973h-1.095C228.524,245.396,206.477,223.433,206.266,196.476z
				 M273.731,252.805v14.284l-17.772,15.922l-17.69-15.848v-14.33C249.365,256.227,262.3,256.325,273.731,252.805z M149.554,329.209
				c0-15.498,9.849-29.289,24.507-34.317l23.024-7.899l-8.944,22.361c-0.627,1.568-0.42,3.348,0.55,4.729l37.046,52.783h-76.183
				V329.209z M241.521,366.866l10.052-47.614h10.136l10.052,47.614H241.521z M362.446,366.866h-74.903l37.046-52.783
				c0.97-1.382,1.177-3.161,0.55-4.729l-8.735-21.835l21.525,7.378c14.664,5.027,24.517,18.819,24.517,34.321V366.866z" fill="#000000" class="color000000 svgShape"></path>
        <path d="M269.794 224.535c1.953-1.952 1.953-5.118 0-7.07-1.951-1.953-5.119-1.953-7.07 0-3.716 3.716-9.731 3.716-13.447 0-1.951-1.953-5.119-1.953-7.07 0-1.953 1.952-1.953 5.118 0 7.07C249.829 232.16 262.169 232.162 269.794 224.535zM231 181c-2.762 0-5 2.238-5 5v5c0 2.762 2.238 5 5 5s5-2.238 5-5v-5C236 183.238 233.762 181 231 181zM281 196c2.762 0 5-2.238 5-5v-5c0-2.762-2.238-5-5-5s-5 2.238-5 5v5C276 193.762 278.238 196 281 196z" fill="#000000" class="color000000 svgShape"></path>
      </g>
    </g>
  </g>
</svg>
