<?xml version="1.0" encoding="UTF-8"?>
<svg xmlns="http://www.w3.org/2000/svg" viewBox="0 0 840 560" width="100%" role="img" aria-label="The course as a folder">
<style>@import url('https://fonts.googleapis.com/css2?family=Caveat:wght@500;600;700');.hw{font-family:'Caveat','Comic Sans MS',cursive;}text{fill:#2B2B2E;}</style>
<defs><filter id="rough" x="-2%" y="-2%" width="104%" height="104%"><feTurbulence type="fractalNoise" baseFrequency="0.013" numOctaves="2" seed="7" result="n"/><feDisplacementMap in="SourceGraphic" in2="n" scale="2.0"/></filter></defs>
<rect x="10" y="10" width="820" height="540" rx="22" fill="#FFFFFF" stroke="#2B2B2E" stroke-width="2.5" filter="url(#rough)"/>
<g filter="url(#rough)"><line x1="56" y1="62" x2="68" y2="62" stroke="#D2785A" stroke-width="3.4" stroke-linecap="round"/><line x1="54.8" y1="64.8" x2="63.3" y2="73.3" stroke="#D2785A" stroke-width="3.4" stroke-linecap="round"/><line x1="52" y1="66" x2="52" y2="78" stroke="#D2785A" stroke-width="3.4" stroke-linecap="round"/><line x1="49.2" y1="64.8" x2="40.7" y2="73.3" stroke="#D2785A" stroke-width="3.4" stroke-linecap="round"/><line x1="48" y1="62" x2="36" y2="62" stroke="#D2785A" stroke-width="3.4" stroke-linecap="round"/><line x1="49.2" y1="59.2" x2="40.7" y2="50.7" stroke="#D2785A" stroke-width="3.4" stroke-linecap="round"/><line x1="52" y1="58" x2="52" y2="46" stroke="#D2785A" stroke-width="3.4" stroke-linecap="round"/><line x1="54.8" y1="59.2" x2="63.3" y2="50.7" stroke="#D2785A" stroke-width="3.4" stroke-linecap="round"/></g>
<text x="82" y="74" class="hw" font-size="42" font-weight="700">It's just files and folders</text>
<path d="M84 87 q 180 9 360 2" stroke="#6B86B0" stroke-width="3" fill="none" stroke-linecap="round" filter="url(#rough)"/>
<text x="84" y="110" class="hw" font-size="21" fill="#7C766B">Claude reads the folder and writes back into it. No hidden layer.</text>
<path d="M62 170 V 468" stroke="#C9C2B2" stroke-width="1.6" fill="none" filter="url(#rough)"/>
<g filter="url(#rough)"><path d="M50 145 h9 l3 3 h13 v13 h-25 z" fill="#E7C66B" stroke="#2B2B2E" stroke-width="1.6" stroke-linejoin="round"/></g>
<text x="82" y="156" class="hw" font-size="28" font-weight="700">the-course/</text>

<path d="M62 228 H 74" stroke="#C9C2B2" stroke-width="1.4" filter="url(#rough)"/>
<g filter="url(#rough)"><path d="M78 220 h13 l6 6 v13 h-19 z" fill="#FFFFFF" stroke="#2B2B2E" stroke-width="1.6" stroke-linejoin="round"/><path d="M91 220 v6 h6" fill="none" stroke="#2B2B2E" stroke-width="1.3"/></g>
<rect x="108" y="214" width="118" height="26" rx="6" fill="#E9E1F5"/><text x="117" y="233" class="hw" font-size="23" font-weight="600">CLAUDE.md</text>
<text x="372" y="232" class="hw" font-size="20" fill="#7C766B">the rules the folder runs on</text>

<path d="M62 268 H 74" stroke="#C9C2B2" stroke-width="1.4" filter="url(#rough)"/>
<g filter="url(#rough)"><path d="M78 263 h9 l3 3 h13 v13 h-25 z" fill="#E7C66B" stroke="#2B2B2E" stroke-width="1.6" stroke-linejoin="round"/></g>
<rect x="108" y="254" width="150" height="26" rx="6" fill="#DBE6F5"/><text x="117" y="273" class="hw" font-size="23" font-weight="600">transcripts/</text>
<text x="372" y="272" class="hw" font-size="20" fill="#7C766B">every session, dropped in nightly</text>

<path d="M62 308 H 74" stroke="#C9C2B2" stroke-width="1.4" filter="url(#rough)"/>
<g filter="url(#rough)"><path d="M78 303 h9 l3 3 h13 v13 h-25 z" fill="#E7C66B" stroke="#2B2B2E" stroke-width="1.6" stroke-linejoin="round"/></g>
<rect x="108" y="294" width="130" height="26" rx="6" fill="#D8EEDD"/><text x="117" y="313" class="hw" font-size="23" font-weight="600">resources/</text>
<text x="372" y="312" class="hw" font-size="20" fill="#7C766B">what Claude built from the questions</text>

<path d="M112 314 V 428" stroke="#C9C2B2" stroke-width="1.4" fill="none" filter="url(#rough)"/>
<path d="M112 348 H 126" stroke="#C9C2B2" stroke-width="1.4" filter="url(#rough)"/>
<g filter="url(#rough)"><path d="M130 340 h11 l5 5 v11 h-16 z" fill="#FFFFFF" stroke="#2B2B2E" stroke-width="1.4" stroke-linejoin="round"/><path d="M141 340 v5 h5" fill="none" stroke="#2B2B2E" stroke-width="1.1"/></g>
<rect x="152" y="336" width="300" height="24" rx="6" fill="#FAEFC4"/><text x="160" y="354" class="hw" font-size="19" font-weight="600">firecrawl-microsite-recipe.md</text>

<path d="M112 388 H 126" stroke="#C9C2B2" stroke-width="1.4" filter="url(#rough)"/>
<g filter="url(#rough)"><path d="M130 380 h11 l5 5 v11 h-16 z" fill="#FFFFFF" stroke="#2B2B2E" stroke-width="1.4" stroke-linejoin="round"/><path d="M141 380 v5 h5" fill="none" stroke="#2B2B2E" stroke-width="1.1"/></g>
<rect x="152" y="376" width="234" height="24" rx="6" fill="#FBE2D2"/><text x="160" y="394" class="hw" font-size="19" font-weight="600">dual-model-qc-loop.md</text>

<path d="M112 428 H 126" stroke="#C9C2B2" stroke-width="1.4" filter="url(#rough)"/>
<g filter="url(#rough)"><path d="M130 420 h11 l5 5 v11 h-16 z" fill="#FFFFFF" stroke="#2B2B2E" stroke-width="1.4" stroke-linejoin="round"/><path d="M141 420 v5 h5" fill="none" stroke="#2B2B2E" stroke-width="1.1"/></g>
<rect x="152" y="416" width="244" height="24" rx="6" fill="#FAEFC4"/><text x="160" y="434" class="hw" font-size="19" font-weight="600">tools-and-references.md</text>

<path d="M62 468 H 74" stroke="#C9C2B2" stroke-width="1.4" filter="url(#rough)"/>
<g filter="url(#rough)"><path d="M78 460 h13 l6 6 v13 h-19 z" fill="#FFFFFF" stroke="#2B2B2E" stroke-width="1.6" stroke-linejoin="round"/><path d="M91 460 v6 h6" fill="none" stroke="#2B2B2E" stroke-width="1.3"/></g>
<rect x="108" y="454" width="130" height="26" rx="6" fill="#FBE2D2"/><text x="117" y="473" class="hw" font-size="23" font-weight="600">index.html</text>
<text x="372" y="472" class="hw" font-size="20" fill="#7C766B">the site you're looking at</text>

<path d="M42 506 H 798" stroke="#C9C2B2" stroke-width="1.4" stroke-dasharray="2 6" filter="url(#rough)"/>
<text x="420" y="534" class="hw" font-size="23" fill="#2B2B2E" text-anchor="middle">The transcript goes in. New pages come out. Same folder.</text>
</svg>
